# xmcd
#
# Track frame offsets: 
#        150
#        14119
#        29138
#        47810
#        65356
#        82478
#        95683
#        108314
#        125357
#        137716
#        160427
#        173297
#        185492
#        203542
#        220253
#        233378
#        251665
#        268064
#        286196
#        303894
#        323261
#
# Disc length: 4698 seconds
#
# Revision: 0
# Processed by: cddbd v1.5.2PL0 Copyright (c) Steve Scherf et al.
# Submitted via: ExactAudioCopy v0.95b4
#
DISCID=29125815
DTITLE=Bastard Sons of Johnny Cash - Road To Texacali
DYEAR=2007
DGENRE=Country Rock
TTITLE0=Texas Sun
TTITLE1=Blade
TTITLE2=The Road To Bakersfield
TTITLE3=440 Horses
TTITLE4=Long Black Veil
TTITLE5=1970 Monte Carlo
TTITLE6=Interstate Cannonball
TTITLE7=California Sky
TTITLE8=Borderline Of The Heart
TTITLE9=Memphis Woman
TTITLE10=Hard Times
TTITLE11=King Of The World
TTITLE12=No Easy Road
TTITLE13=Lonely Tonight
TTITLE14=Damage Is Done
TTITLE15=Burn Down
TTITLE16=Austin Night
TTITLE17=Cryin' Over You
TTITLE18=Distance Between
TTITLE19=Radio Girl
TTITLE20=Bonus Track
EXTD=
EXTT0=
EXTT1=
EXTT2=
EXTT3=
EXTT4=
EXTT5=
EXTT6=
EXTT7=
EXTT8=
EXTT9=
EXTT10=
EXTT11=
EXTT12=
EXTT13=
EXTT14=
EXTT15=
EXTT16=
EXTT17=
EXTT18=
EXTT19=
EXTT20=
PLAYORDER=
